<mxfile host="app.diagrams.net" modified="2023-10-01T11:21:27.890Z" agent="Mozilla/5.0 (Windows NT 10.0; Win64; x64) AppleWebKit/537.36 (KHTML, like Gecko) Chrome/117.0.0.0 Safari/537.36 Edg/117.0.2045.43" etag="8y5x7TmJHqJuoTaS9GuE" version="22.0.0" type="github">
  <diagram name="Page-1" id="CeXYVhIHceZj5s0qiirt">
    <mxGraphModel dx="1155" dy="633" grid="1" gridSize="10" guides="1" tooltips="1" connect="1" arrows="1" fold="1" page="1" pageScale="1" pageWidth="850" pageHeight="1100" math="0" shadow="0">
      <root>
        <mxCell id="0" />
        <mxCell id="1" parent="0" />
        <mxCell id="iNMXPVPhcJ_gmhK6p8-y-1" value="driverCfg" style="swimlane;childLayout=stackLayout;horizontal=1;startSize=50;horizontalStack=0;rounded=1;fontSize=14;fontStyle=0;strokeWidth=1;resizeParent=0;resizeLast=1;shadow=0;dashed=0;align=center;arcSize=4;whiteSpace=wrap;html=1;" vertex="1" parent="1">
          <mxGeometry x="90" y="1110" width="160" height="100" as="geometry" />
        </mxCell>
        <mxCell id="iNMXPVPhcJ_gmhK6p8-y-2" value="+id: uint8_t&lt;br&gt;+led: uint8_t" style="align=left;strokeColor=none;fillColor=none;spacingLeft=4;fontSize=12;verticalAlign=top;resizable=0;rotatable=0;part=1;html=1;" vertex="1" parent="iNMXPVPhcJ_gmhK6p8-y-1">
          <mxGeometry y="50" width="160" height="50" as="geometry" />
        </mxCell>
        <mxCell id="iNMXPVPhcJ_gmhK6p8-y-3" value="lp50xxDevCfg" style="swimlane;childLayout=stackLayout;horizontal=1;startSize=50;horizontalStack=0;rounded=1;fontSize=14;fontStyle=0;strokeWidth=1;resizeParent=0;resizeLast=1;shadow=0;dashed=0;align=center;arcSize=4;whiteSpace=wrap;html=1;" vertex="1" parent="1">
          <mxGeometry x="650" y="1200" width="160" height="120" as="geometry">
            <mxRectangle y="26" width="160" height="50" as="alternateBounds" />
          </mxGeometry>
        </mxCell>
        <mxCell id="iNMXPVPhcJ_gmhK6p8-y-4" value="autoIncrement: uint8_t&lt;br&gt;maxCurrOpt: uint8_t&lt;br&gt;powerSaveEn: uint8_t&lt;br&gt;" style="align=left;strokeColor=none;fillColor=none;spacingLeft=4;fontSize=12;verticalAlign=top;resizable=0;rotatable=0;part=1;html=1;" vertex="1" parent="iNMXPVPhcJ_gmhK6p8-y-3">
          <mxGeometry y="50" width="160" height="70" as="geometry" />
        </mxCell>
        <mxCell id="iNMXPVPhcJ_gmhK6p8-y-9" value="lp50xxCfg" style="swimlane;childLayout=stackLayout;horizontal=1;startSize=50;horizontalStack=0;rounded=1;fontSize=14;fontStyle=0;strokeWidth=1;resizeParent=0;resizeLast=1;shadow=0;dashed=0;align=center;arcSize=4;whiteSpace=wrap;html=1;" vertex="1" parent="1">
          <mxGeometry x="390" y="1240" width="160" height="90" as="geometry">
            <mxRectangle y="26" width="160" height="50" as="alternateBounds" />
          </mxGeometry>
        </mxCell>
        <mxCell id="iNMXPVPhcJ_gmhK6p8-y-10" value="devCfg: lp50xxDevCfg*&lt;br&gt;ledCfg[ ]: lp50xxLedCfg" style="align=left;strokeColor=none;fillColor=none;spacingLeft=4;fontSize=12;verticalAlign=top;resizable=0;rotatable=0;part=1;html=1;" vertex="1" parent="iNMXPVPhcJ_gmhK6p8-y-9">
          <mxGeometry y="50" width="160" height="40" as="geometry" />
        </mxCell>
        <mxCell id="iNMXPVPhcJ_gmhK6p8-y-11" style="edgeStyle=orthogonalEdgeStyle;rounded=0;orthogonalLoop=1;jettySize=auto;html=1;exitX=1;exitY=0.25;exitDx=0;exitDy=0;entryX=0;entryY=0.25;entryDx=0;entryDy=0;" edge="1" parent="1" source="iNMXPVPhcJ_gmhK6p8-y-10" target="iNMXPVPhcJ_gmhK6p8-y-3">
          <mxGeometry relative="1" as="geometry" />
        </mxCell>
        <mxCell id="iNMXPVPhcJ_gmhK6p8-y-12" value="lp50xxLedMapTbl" style="swimlane;childLayout=stackLayout;horizontal=1;startSize=50;horizontalStack=0;rounded=1;fontSize=14;fontStyle=0;strokeWidth=1;resizeParent=0;resizeLast=1;shadow=0;dashed=0;align=center;arcSize=4;whiteSpace=wrap;html=1;" vertex="1" parent="1">
          <mxGeometry x="650" y="1340" width="160" height="120" as="geometry">
            <mxRectangle y="26" width="160" height="50" as="alternateBounds" />
          </mxGeometry>
        </mxCell>
        <mxCell id="iNMXPVPhcJ_gmhK6p8-y-13" value="regId: uint8_t" style="align=left;strokeColor=none;fillColor=none;spacingLeft=4;fontSize=12;verticalAlign=top;resizable=0;rotatable=0;part=1;html=1;" vertex="1" parent="iNMXPVPhcJ_gmhK6p8-y-12">
          <mxGeometry y="50" width="160" height="70" as="geometry" />
        </mxCell>
        <mxCell id="iNMXPVPhcJ_gmhK6p8-y-15" style="edgeStyle=orthogonalEdgeStyle;rounded=0;orthogonalLoop=1;jettySize=auto;html=1;exitX=1;exitY=0.5;exitDx=0;exitDy=0;entryX=0;entryY=0.25;entryDx=0;entryDy=0;" edge="1" parent="1" source="iNMXPVPhcJ_gmhK6p8-y-10" target="iNMXPVPhcJ_gmhK6p8-y-12">
          <mxGeometry relative="1" as="geometry" />
        </mxCell>
        <mxCell id="iNMXPVPhcJ_gmhK6p8-y-17" value="pwmCfg" style="swimlane;childLayout=stackLayout;horizontal=1;startSize=50;horizontalStack=0;rounded=1;fontSize=14;fontStyle=0;strokeWidth=1;resizeParent=0;resizeLast=1;shadow=0;dashed=0;align=center;arcSize=4;whiteSpace=wrap;html=1;" vertex="1" parent="1">
          <mxGeometry x="390" y="950" width="160" height="90" as="geometry">
            <mxRectangle y="26" width="160" height="50" as="alternateBounds" />
          </mxGeometry>
        </mxCell>
        <mxCell id="iNMXPVPhcJ_gmhK6p8-y-18" value="devCfg: pwmDevCfg*&lt;br&gt;ledCfg: pwmLedCfg[ ]" style="align=left;strokeColor=none;fillColor=none;spacingLeft=4;fontSize=12;verticalAlign=top;resizable=0;rotatable=0;part=1;html=1;" vertex="1" parent="iNMXPVPhcJ_gmhK6p8-y-17">
          <mxGeometry y="50" width="160" height="40" as="geometry" />
        </mxCell>
        <mxCell id="iNMXPVPhcJ_gmhK6p8-y-21" style="edgeStyle=orthogonalEdgeStyle;rounded=0;orthogonalLoop=1;jettySize=auto;html=1;exitX=1;exitY=0.25;exitDx=0;exitDy=0;entryX=0;entryY=0.25;entryDx=0;entryDy=0;" edge="1" parent="1" source="iNMXPVPhcJ_gmhK6p8-y-2" target="iNMXPVPhcJ_gmhK6p8-y-18">
          <mxGeometry relative="1" as="geometry" />
        </mxCell>
        <mxCell id="iNMXPVPhcJ_gmhK6p8-y-22" style="edgeStyle=orthogonalEdgeStyle;rounded=0;orthogonalLoop=1;jettySize=auto;html=1;exitX=1;exitY=0.25;exitDx=0;exitDy=0;entryX=0;entryY=0.25;entryDx=0;entryDy=0;" edge="1" parent="1" source="iNMXPVPhcJ_gmhK6p8-y-2" target="iNMXPVPhcJ_gmhK6p8-y-10">
          <mxGeometry relative="1" as="geometry" />
        </mxCell>
        <mxCell id="iNMXPVPhcJ_gmhK6p8-y-23" style="edgeStyle=orthogonalEdgeStyle;rounded=0;orthogonalLoop=1;jettySize=auto;html=1;exitX=1;exitY=0.5;exitDx=0;exitDy=0;entryX=-0.007;entryY=0.657;entryDx=0;entryDy=0;entryPerimeter=0;" edge="1" parent="1" source="iNMXPVPhcJ_gmhK6p8-y-2" target="iNMXPVPhcJ_gmhK6p8-y-18">
          <mxGeometry relative="1" as="geometry">
            <Array as="points">
              <mxPoint x="280" y="1185" />
              <mxPoint x="280" y="1026" />
            </Array>
          </mxGeometry>
        </mxCell>
        <mxCell id="iNMXPVPhcJ_gmhK6p8-y-24" style="edgeStyle=orthogonalEdgeStyle;rounded=0;orthogonalLoop=1;jettySize=auto;html=1;exitX=1;exitY=0.5;exitDx=0;exitDy=0;entryX=0;entryY=0.75;entryDx=0;entryDy=0;" edge="1" parent="1" source="iNMXPVPhcJ_gmhK6p8-y-2" target="iNMXPVPhcJ_gmhK6p8-y-10">
          <mxGeometry relative="1" as="geometry">
            <Array as="points">
              <mxPoint x="280" y="1185" />
              <mxPoint x="280" y="1320" />
            </Array>
          </mxGeometry>
        </mxCell>
        <mxCell id="iNMXPVPhcJ_gmhK6p8-y-25" value="pwmDevCfg" style="swimlane;childLayout=stackLayout;horizontal=1;startSize=50;horizontalStack=0;rounded=1;fontSize=14;fontStyle=0;strokeWidth=1;resizeParent=0;resizeLast=1;shadow=0;dashed=0;align=center;arcSize=4;whiteSpace=wrap;html=1;" vertex="1" parent="1">
          <mxGeometry x="650" y="912" width="160" height="120" as="geometry">
            <mxRectangle y="26" width="160" height="50" as="alternateBounds" />
          </mxGeometry>
        </mxCell>
        <mxCell id="iNMXPVPhcJ_gmhK6p8-y-26" value="numled: uint8_t" style="align=left;strokeColor=none;fillColor=none;spacingLeft=4;fontSize=12;verticalAlign=top;resizable=0;rotatable=0;part=1;html=1;" vertex="1" parent="iNMXPVPhcJ_gmhK6p8-y-25">
          <mxGeometry y="50" width="160" height="70" as="geometry" />
        </mxCell>
        <mxCell id="iNMXPVPhcJ_gmhK6p8-y-27" value="pwmLedMapTbl" style="swimlane;childLayout=stackLayout;horizontal=1;startSize=50;horizontalStack=0;rounded=1;fontSize=14;fontStyle=0;strokeWidth=1;resizeParent=0;resizeLast=1;shadow=0;dashed=0;align=center;arcSize=4;whiteSpace=wrap;html=1;" vertex="1" parent="1">
          <mxGeometry x="650" y="1053" width="160" height="120" as="geometry">
            <mxRectangle y="26" width="160" height="50" as="alternateBounds" />
          </mxGeometry>
        </mxCell>
        <mxCell id="iNMXPVPhcJ_gmhK6p8-y-28" value="pwmId: uint8_t" style="align=left;strokeColor=none;fillColor=none;spacingLeft=4;fontSize=12;verticalAlign=top;resizable=0;rotatable=0;part=1;html=1;" vertex="1" parent="iNMXPVPhcJ_gmhK6p8-y-27">
          <mxGeometry y="50" width="160" height="70" as="geometry" />
        </mxCell>
        <mxCell id="iNMXPVPhcJ_gmhK6p8-y-29" style="edgeStyle=orthogonalEdgeStyle;rounded=0;orthogonalLoop=1;jettySize=auto;html=1;exitX=1;exitY=0.75;exitDx=0;exitDy=0;entryX=0;entryY=0.25;entryDx=0;entryDy=0;" edge="1" parent="1" source="iNMXPVPhcJ_gmhK6p8-y-18" target="iNMXPVPhcJ_gmhK6p8-y-27">
          <mxGeometry relative="1" as="geometry" />
        </mxCell>
        <mxCell id="iNMXPVPhcJ_gmhK6p8-y-30" style="edgeStyle=orthogonalEdgeStyle;rounded=0;orthogonalLoop=1;jettySize=auto;html=1;exitX=1;exitY=0.25;exitDx=0;exitDy=0;entryX=0;entryY=0.25;entryDx=0;entryDy=0;" edge="1" parent="1" source="iNMXPVPhcJ_gmhK6p8-y-18" target="iNMXPVPhcJ_gmhK6p8-y-25">
          <mxGeometry relative="1" as="geometry" />
        </mxCell>
      </root>
    </mxGraphModel>
  </diagram>
</mxfile>
